<svg xmlns="http://www.w3.org/2000/svg" xmlns:xlink="http://www.w3.org/1999/xlink" version="1.1" id="Your_Icon" x="0px" y="0px" width="100px" height="100px" viewBox="0 0 100 100" enable-background="new 0 0 100 100" xml:space="preserve">
<circle cx="18.869" cy="28.494" r="12.767"/>
<path d="M48.443,72.14c1.143,0,2.301-0.436,3.173-1.309L68.06,54.394c1.745-1.744,1.752-4.574,0.007-6.318  c-1.745-1.746-4.573-1.746-6.319,0L48.471,61.147c0,0-14.188-16.147-17.826-16.147c-3.638,0-21.033,0-21.033,0  C5.4,45,1,48.857,1,53.07V85h33V60.665l10.739,10.166C45.612,71.704,47.3,72.14,48.443,72.14z"/>
<polygon points="44,16 44,49.221 47.983,53.428 51,50.421 51,24 92,24 92,78 44,78 44,85 99,85 99,16 "/>
</svg>